<svg id="Layer_1" data-name="Layer 1" xmlns="http://www.w3.org/2000/svg" viewBox="0 0 301.33 110.71"><defs><style>.cls-1{fill:#a91f25;}.cls-2{fill:#fff;}</style></defs><title>arts-logo-long</title><path d="M12.22,92.92H.22V28.07H29.3V38.49H12.22v18H28.15V66.93H12.22Z"/><path d="M39.59,92.92V28.07H51V92.92Z"/><path d="M110.08,92.92H95.35l-20-47h-.63a57,57,0,0,1,1.11,11.53V92.92H64.65V28.07H79.47L99.34,74.56h.49A63.14,63.14,0,0,1,99,63.47V28.07h11.09Z"/><path d="M150.75,92.92H121.52V28.07h29.23V38.49H133.59V53.93h15.92V64.4H133.59v18h17.17Z"/><path d="M155.7,102.28a4.09,4.09,0,0,1-1,2.92,3.63,3.63,0,0,1-2.77,1h-.55v4.33h-2.16V98.63h3Q155.7,98.63,155.7,102.28Zm-4.29,2h.42a1.55,1.55,0,0,0,1.22-.45,2.86,2.86,0,0,0,0-2.86,1.38,1.38,0,0,0-1.13-.45h-.54Z"/><path d="M165.55,104.55a7.91,7.91,0,0,1-1.11,4.55,4,4,0,0,1-6.36,0,7.93,7.93,0,0,1-1.11-4.57,7.85,7.85,0,0,1,1.11-4.54,3.67,3.67,0,0,1,3.2-1.58,3.62,3.62,0,0,1,3.17,1.59A7.94,7.94,0,0,1,165.55,104.55Zm-6.31,0a7.41,7.41,0,0,0,.51,3.11,1.63,1.63,0,0,0,1.47,1.07q2,0,2-4.18t-2-4.18a1.64,1.64,0,0,0-1.53,1.07,7.4,7.4,0,0,0-.47,3.11Z"/><path d="M169.64,105.89v4.64h-2.22V98.63h2.91a3.72,3.72,0,0,1,2.72.87,3.62,3.62,0,0,1,.88,2.67,3.36,3.36,0,0,1-1.53,3.16l2.29,5.23h-2.37l-1.89-4.64Zm0-1.91h.58a1.33,1.33,0,0,0,1.13-.44,2.15,2.15,0,0,0,.34-1.33,1.88,1.88,0,0,0-.36-1.3,1.47,1.47,0,0,0-1.12-.39h-.55Z"/><path d="M179.58,110.54h-2.21v-10h-2.29v-2h6.78v2h-2.29Z"/><path d="M185.47,110.54h-2.25V98.63h5.35v1.92h-3.14v3.31h2.93v1.92h-2.93Z"/><path d="M198.45,104.55a7.91,7.91,0,0,1-1.11,4.55,4,4,0,0,1-6.36,0,7.93,7.93,0,0,1-1.11-4.57A7.85,7.85,0,0,1,191,100a3.67,3.67,0,0,1,3.2-1.58,3.62,3.62,0,0,1,3.17,1.59A7.94,7.94,0,0,1,198.45,104.55Zm-6.31,0a7.41,7.41,0,0,0,.51,3.11,1.63,1.63,0,0,0,1.51,1.07q2,0,2-4.18t-2-4.18a1.64,1.64,0,0,0-1.53,1.07A7.4,7.4,0,0,0,192.14,104.55Z"/><path d="M200.33,110.54V98.63h2.22v10h3.08v1.94Z"/><path d="M207.58,110.54V98.63h2.09v11.93Z"/><path d="M220.53,104.55a7.91,7.91,0,0,1-1.11,4.55,4,4,0,0,1-6.36,0,7.93,7.93,0,0,1-1.11-4.57,7.85,7.85,0,0,1,1.11-4.54,3.67,3.67,0,0,1,3.2-1.58,3.62,3.62,0,0,1,3.17,1.59A7.94,7.94,0,0,1,220.53,104.55Zm-6.31,0a7.41,7.41,0,0,0,.51,3.11,1.63,1.63,0,0,0,1.49,1.07q2,0,2-4.18t-2-4.18a1.64,1.64,0,0,0-1.53,1.07A7.4,7.4,0,0,0,214.22,104.55Z"/><path d="M232.1,107.25a3.58,3.58,0,0,1-.84,2.56,3.2,3.2,0,0,1-2.44.89,5.36,5.36,0,0,1-2.65-.61v-2.2a4.59,4.59,0,0,0,2.46.87,1.24,1.24,0,0,0,1-.35,1.36,1.36,0,0,0,.32-1,1.73,1.73,0,0,0-.38-1.09,5.66,5.66,0,0,0-1.26-1.1,5.6,5.6,0,0,1-1.16-1,3.67,3.67,0,0,1-.61-1.09,4.15,4.15,0,0,1-.22-1.4,3.39,3.39,0,0,1,.85-2.43,3,3,0,0,1,2.29-.9,5,5,0,0,1,2.64.77l-.73,1.78a7,7,0,0,0-.82-.41,2.35,2.35,0,0,0-.92-.18,1,1,0,0,0-.83.35,1.49,1.49,0,0,0-.29,1,1.67,1.67,0,0,0,.35,1.05,5.15,5.15,0,0,0,1.21,1,5,5,0,0,1,1.63,1.6A3.71,3.71,0,0,1,232.1,107.25Z"/><path d="M241.08,110.54h-2.22v-5.23h-2.93v5.23h-2.22V98.63h2.22v4.74h2.93V98.63h2.22Z"/><path d="M251.53,104.55a7.91,7.91,0,0,1-1.11,4.55,4,4,0,0,1-6.36,0,7.93,7.93,0,0,1-1.11-4.57,7.85,7.85,0,0,1,1.11-4.54,3.67,3.67,0,0,1,3.2-1.58,3.62,3.62,0,0,1,3.17,1.59A7.94,7.94,0,0,1,251.53,104.55Zm-6.31,0a7.41,7.41,0,0,0,.51,3.11,1.63,1.63,0,0,0,1.49,1.07q2,0,2-4.18t-2-4.18a1.64,1.64,0,0,0-1.53,1.07A7.4,7.4,0,0,0,245.22,104.55Z"/><path d="M263.29,110.54h-2.77l-1.17-6.25a21.84,21.84,0,0,1-.38-3l-.07.6-.33,2.46-1.13,6.22h-2.78l-2.17-11.94h2.18l1.07,6.73q.16,1,.42,3.17.2-2.19.38-3.13l1.28-6.77h2.3l1.27,6.78q.25,1.51.4,3.14.29-2.42.42-3.19l1-6.73h2.2Z"/><path d="M277,110.54h-6.4v-1.66l2.12-3a21.66,21.66,0,0,0,1.2-1.84,5.61,5.61,0,0,0,.48-1.15,4.18,4.18,0,0,0,.16-1.14,1.5,1.5,0,0,0-.31-1,1,1,0,0,0-.8-.34,1.53,1.53,0,0,0-.81.23,4.59,4.59,0,0,0-.91.82l-1.24-1.31a5.46,5.46,0,0,1,1.59-1.33,3.56,3.56,0,0,1,1.59-.36,3,3,0,0,1,2.26.85,3.27,3.27,0,0,1,.81,2.36,5.55,5.55,0,0,1-.15,1.3,6.14,6.14,0,0,1-.45,1.23,10.33,10.33,0,0,1-.75,1.28q-.45.67-2.32,3v.07H277Z"/><path d="M285,104.57a10.43,10.43,0,0,1-.78,4.69,2.64,2.64,0,0,1-2.51,1.44,2.59,2.59,0,0,1-2.49-1.45,10.72,10.72,0,0,1-.76-4.68,10.38,10.38,0,0,1,.79-4.69,2.86,2.86,0,0,1,5,0A10.63,10.63,0,0,1,285,104.57Zm-4.31,0a16.92,16.92,0,0,0,.22,3.38q.22.87.82.87a.7.7,0,0,0,.63-.37,3.29,3.29,0,0,0,.32-1.25,25.52,25.52,0,0,0,.1-2.62,16.12,16.12,0,0,0-.23-3.36q-.23-.9-.82-.9t-.82.89A17.1,17.1,0,0,0,280.68,104.57Z"/><path d="M291.68,110.54h-2.19v-7q0-1.14.11-2.63l-.42.5q-.36.42-1.42,1.49l-1.24-1.36,3.17-2.94h2Z"/><path d="M297.47,98.45a3.1,3.1,0,0,1,2.23.79,2.83,2.83,0,0,1,.83,2.16,3,3,0,0,1-.39,1.52,4,4,0,0,1-1.32,1.3,5,5,0,0,1,1.49,1.52,3.4,3.4,0,0,1,.44,1.7,3.08,3.08,0,0,1-2.89,3.26h-.39a3.37,3.37,0,0,1-2.42-.83,3.1,3.1,0,0,1-.87-2.36,3.69,3.69,0,0,1,.44-1.82,3.92,3.92,0,0,1,1.35-1.37,4.51,4.51,0,0,1-1.21-1.37,3.29,3.29,0,0,1-.36-1.55,2.79,2.79,0,0,1,.86-2.14A3.12,3.12,0,0,1,297.47,98.45Zm-1.18,8.95a2,2,0,0,0,.3,1.14,1.12,1.12,0,0,0,1.75,0,2,2,0,0,0,.3-1.14,2.09,2.09,0,0,0-.24-1,4,4,0,0,0-.91-1.05l-.11-.11a2.81,2.81,0,0,0-.81.89A2.55,2.55,0,0,0,296.29,107.4Zm1.17-7.22a.8.8,0,0,0-.7.34,1.67,1.67,0,0,0-.24,1,2.11,2.11,0,0,0,.2.94,2.68,2.68,0,0,0,.76.85,2.44,2.44,0,0,0,.74-.83,2.17,2.17,0,0,0,.2-1q0-1.31-1-1.31Z"/><path d="M8.56,22.21l-.75-2.15H7.73A5.34,5.34,0,0,1,6,22a4.39,4.39,0,0,1-2.25.52A3.26,3.26,0,0,1,1,21.19a5.83,5.83,0,0,1-1-3.62,4.7,4.7,0,0,1,1.37-3.7,6.48,6.48,0,0,1,4.08-1.34l2.1-.08V11.3q0-2.21-1.91-2.21a6.54,6.54,0,0,0-3.26,1.1L1.09,7.63A9.38,9.38,0,0,1,6.22,6.11,4.9,4.9,0,0,1,10,7.55a5.83,5.83,0,0,1,1.28,4.08V22.21ZM5.29,19.55a1.89,1.89,0,0,0,1.65-.92,4.4,4.4,0,0,0,.62-2.47V14.82l-1.16.06a2.64,2.64,0,0,0-1.89.74,2.87,2.87,0,0,0-.6,2Q3.91,19.55,5.29,19.55Z"/><path d="M24.54,17.63a4.75,4.75,0,0,1-1.32,3.57,5.55,5.55,0,0,1-4,1.3,7.39,7.39,0,0,1-3.87-.92V18.3a7.33,7.33,0,0,0,1.82.89,5.8,5.8,0,0,0,1.83.35,1.89,1.89,0,0,0,1.34-.43A1.49,1.49,0,0,0,20.8,18a1.83,1.83,0,0,0-.48-1.26,8.21,8.21,0,0,0-1.77-1.32,7.26,7.26,0,0,1-2.46-2.17,4.92,4.92,0,0,1-.74-2.73A4,4,0,0,1,16.73,7.3a5.66,5.66,0,0,1,3.79-1.18,7.59,7.59,0,0,1,4,1.1l-1.3,2.73a5.76,5.76,0,0,0-2.66-.82,1.42,1.42,0,0,0-1.08.38,1.31,1.31,0,0,0-.36.93,1.64,1.64,0,0,0,.45,1.13,7.8,7.8,0,0,0,1.65,1.24,10.59,10.59,0,0,1,2.07,1.52,4.51,4.51,0,0,1,.93,1.41A4.87,4.87,0,0,1,24.54,17.63Z"/><path d="M37,17.63a4.75,4.75,0,0,1-1.35,3.6,5.55,5.55,0,0,1-4,1.3,7.39,7.39,0,0,1-3.87-.92V18.3a7.33,7.33,0,0,0,1.82.89,5.8,5.8,0,0,0,1.83.35,1.89,1.89,0,0,0,1.34-.43A1.49,1.49,0,0,0,33.27,18a1.83,1.83,0,0,0-.48-1.26A8.21,8.21,0,0,0,31,15.39a7.26,7.26,0,0,1-2.46-2.17,4.92,4.92,0,0,1-.74-2.73,4,4,0,0,1,1.4-3.18A5.66,5.66,0,0,1,33,6.13a7.59,7.59,0,0,1,4,1.1l-1.23,2.7a5.76,5.76,0,0,0-2.66-.82A1.42,1.42,0,0,0,32,9.49a1.31,1.31,0,0,0-.36.93,1.64,1.64,0,0,0,.45,1.13,7.8,7.8,0,0,0,1.66,1.23,10.59,10.59,0,0,1,2.07,1.52,4.51,4.51,0,0,1,.92,1.42A4.87,4.87,0,0,1,37,17.63Z"/><path d="M52.56,14.29a9.79,9.79,0,0,1-1.64,6,5.73,5.73,0,0,1-7.7,1.21,6.27,6.27,0,0,1-2.14-2.87,11.58,11.58,0,0,1-.75-4.35,9.77,9.77,0,0,1,1.63-6,5.34,5.34,0,0,1,4.52-2.16,5.26,5.26,0,0,1,4.44,2.2A9.71,9.71,0,0,1,52.56,14.29Zm-8.38,0A9.93,9.93,0,0,0,44.72,18a1.8,1.8,0,0,0,1.73,1.26q2.27,0,2.27-5a9.57,9.57,0,0,0-.54-3.7,1.83,1.83,0,0,0-3.45,0,9.68,9.68,0,0,0-.51,3.72Z"/><path d="M61.9,22.49a5,5,0,0,1-4.29-2,10.31,10.31,0,0,1-1.47-6q0-4.16,1.39-6.22a4.85,4.85,0,0,1,4.31-2.05,7.2,7.2,0,0,1,1.84.25,6.2,6.2,0,0,1,1.73.74l-1.08,2.93a4.22,4.22,0,0,0-2.11-.73,1.8,1.8,0,0,0-1.7,1.27A10.12,10.12,0,0,0,60,14.39,9.69,9.69,0,0,0,60.51,18a1.77,1.77,0,0,0,1.71,1.2,5.5,5.5,0,0,0,3-1v3.31A6.11,6.11,0,0,1,61.9,22.49Z"/><path d="M68.82,2.31A2,2,0,0,1,69.36.83,2.06,2.06,0,0,1,70.88.29a2,2,0,0,1,1.47.54,2,2,0,0,1,.55,1.48,2,2,0,0,1-.57,1.49,2,2,0,0,1-1.46.53,2.1,2.1,0,0,1-1.5-.53A2,2,0,0,1,68.82,2.31Zm3.92,19.9H69V6.43h3.77Z"/><path d="M85.17,22.21l-.75-2.15h-.08A5.34,5.34,0,0,1,82.61,22a4.39,4.39,0,0,1-2.25.52,3.26,3.26,0,0,1-2.74-1.3,5.83,5.83,0,0,1-1-3.62A4.7,4.7,0,0,1,78,13.87a6.48,6.48,0,0,1,4.08-1.34l2.1-.08V11.3q0-2.21-1.91-2.21A6.54,6.54,0,0,0,79,10.19L77.69,7.63A9.38,9.38,0,0,1,82.8,6.14a4.9,4.9,0,0,1,3.82,1.44,5.83,5.83,0,0,1,1.31,4V22.21ZM81.9,19.55a1.89,1.89,0,0,0,1.64-.92,4.4,4.4,0,0,0,.62-2.47V14.82L83,14.88a2.64,2.64,0,0,0-1.89.74,2.87,2.87,0,0,0-.6,2Q80.51,19.55,81.9,19.55Z"/><path d="M97.86,19.31a4.35,4.35,0,0,0,1.71-.4v3a4.87,4.87,0,0,1-2.76.64,3.68,3.68,0,0,1-3-1.22,5.76,5.76,0,0,1-1-3.67V9.42H91.22V7.74l2-1.36,1-3.34h2.41v3.4h2.86v3H96.63v8.3Q96.58,19.31,97.86,19.31Z"/><path d="M108.92,22.49a5.69,5.69,0,0,1-4.67-2.1,9.22,9.22,0,0,1-1.71-6,10.47,10.47,0,0,1,1.54-6.1,5,5,0,0,1,4.3-2.19A4.9,4.9,0,0,1,112.44,8a8.27,8.27,0,0,1,1.49,5.26v2h-7.58a5.15,5.15,0,0,0,.86,3.14,2.74,2.74,0,0,0,2.27,1,7.35,7.35,0,0,0,3.74-1.08v3.1A8.28,8.28,0,0,1,108.92,22.49ZM108.37,9A1.54,1.54,0,0,0,107,9.9a5.76,5.76,0,0,0-.61,2.66h3.79a5.7,5.7,0,0,0-.52-2.62A1.51,1.51,0,0,0,108.37,9Z"/><path d="M138.42,14.29a9.79,9.79,0,0,1-1.64,6,5.73,5.73,0,0,1-7.7,1.17,6.27,6.27,0,0,1-2.14-2.83,11.58,11.58,0,0,1-.75-4.35,9.77,9.77,0,0,1,1.63-6,5.34,5.34,0,0,1,4.52-2.16,5.26,5.26,0,0,1,4.44,2.2A9.71,9.71,0,0,1,138.42,14.29Zm-8.38,0a9.93,9.93,0,0,0,.54,3.72,1.8,1.8,0,0,0,1.73,1.26q2.27,0,2.27-5a9.57,9.57,0,0,0-.54-3.7,1.83,1.83,0,0,0-3.45,0,9.68,9.68,0,0,0-.55,3.72Z"/><path d="M149.39,9.42h-2.61V22.21H143V9.42h-1.79V7.54l1.83-1.13V5.22a5.93,5.93,0,0,1,1.09-3.92A4.37,4.37,0,0,1,147.65,0a6.45,6.45,0,0,1,2.85.64l-1,2.87a3.3,3.3,0,0,0-1.44-.34,1,1,0,0,0-.95.51,3.23,3.23,0,0,0-.3,1.57V6.43h2.61Z"/><rect class="cls-1" x="149.26" y="27.98" width="150.44" height="64.85"/><path class="cls-2" d="M179.22,93.63l-2.74-7.86h-.26q-3,5.07-6.31,7a16,16,0,0,1-8.22,1.91,11.91,11.91,0,0,1-10-4.76q-3.64-4.75-3.64-13.23,0-9.1,5-13.52T168,58.28l7.65-.31V53.79q0-8.06-7-8.06-5.17,0-11.89,4L152,40.22a34.24,34.24,0,0,1,18.66-5.43q9.15,0,13.93,5.25t4.78,14.86V93.63Zm-11.94-9.72a6.91,6.91,0,0,0,6-3.39,16,16,0,0,0,2.25-9V66.63l-4.24.21q-4.71.26-6.9,2.69t-2.17,7.22q0,7.13,5.06,7.13Z"/><path class="cls-2" d="M225,34.93a16.23,16.23,0,0,1,5,.78L228.37,49a11.45,11.45,0,0,0-3.77-.52,8.75,8.75,0,0,0-7.7,4q-2.69,4-2.69,11.5v29.6H200.42V36h11.32l1.55,9h.47q2.27-5.43,5-7.75A9.27,9.27,0,0,1,225,34.93Z"/><path class="cls-2" d="M256.09,83a15.9,15.9,0,0,0,6.25-1.45V92.31q-3.35,2.32-10.12,2.32-7.5,0-11.11-4.47t-3.62-13.42V46.92h-5.58V40.77l7.19-5,3.55-12.14h8.79V36h10.44V46.92H251.44V77.21Q251.44,83,256.09,83Z"/><path class="cls-2" d="M301.32,76.75q0,8.43-4.94,13.16t-14.54,4.72q-8.53,0-14.11-3.36V79.33a26.74,26.74,0,0,0,6.64,3.3,21.17,21.17,0,0,0,6.69,1.29,6.88,6.88,0,0,0,4.88-1.58,5.44,5.44,0,0,0,1.68-4.16,6.69,6.69,0,0,0-1.76-4.6,30,30,0,0,0-6.46-4.81q-6.25-3.72-9-7.93a18,18,0,0,1-2.71-10q0-7.34,5-11.63t13.83-4.29a27.73,27.73,0,0,1,14.42,4l-4.5,9.87q-5.53-3-9.72-3a5.19,5.19,0,0,0-4,1.4,4.78,4.78,0,0,0-1.2,3.44,6,6,0,0,0,1.63,4.14,28.49,28.49,0,0,0,6.07,4.5,38.77,38.77,0,0,1,7.55,5.53A16.55,16.55,0,0,1,300.13,70,17.76,17.76,0,0,1,301.32,76.75Z"/></svg>