<svg width="655" height="230" viewBox="0 0 655 230" fill="none" xmlns="http://www.w3.org/2000/svg">
<path d="M16.5454 33.993H20.495L12.4891 0.384099H7.89912L0 33.993H3.73607L5.6041 25.6868H14.6774L16.5454 33.993ZM6.24457 22.662L10.1408 5.18537L14.0369 22.662H6.24457Z" fill="black"/>
<path d="M40.9883 12.0992V6.91383C40.9883 2.20858 37.5725 0 32.4488 0H32.342C27.2183 0 23.8024 2.20858 23.8024 6.91383V10.9469C23.8024 13.8757 25.2969 15.268 28.5526 16.9005L33.7831 19.4932C36.3449 20.7895 37.3056 21.6537 37.3056 23.9103V26.599C37.3056 29.7679 35.8646 31.3043 32.4488 31.3043C29.0329 31.3043 27.5919 29.7679 27.5919 26.599V21.7978H23.8024V27.3672C23.8024 32.3125 26.7379 34.3771 32.3954 34.3771H32.5021C38.1596 34.3771 41.0951 32.2645 41.0951 27.3672V22.9021C41.0951 20.0693 39.1737 18.2928 36.2916 16.8525L30.9543 14.2118C28.4458 12.9634 27.5919 12.2912 27.5919 10.0347V7.68203C27.5919 4.46518 29.0329 3.07281 32.3954 3.07281C35.7579 3.07281 37.1989 4.46518 37.1989 7.68203V12.0992H40.9883Z" fill="black"/>
<path d="M63.2963 12.0992V6.91383C63.2963 2.20858 59.8805 0 54.7568 0H54.65C49.5263 0 46.1104 2.20858 46.1104 6.91383V10.9469C46.1104 13.8757 47.6049 15.268 50.8606 16.9005L56.0911 19.4932C58.6529 20.7895 59.6136 21.6537 59.6136 23.9103V26.599C59.6136 29.7679 58.1726 31.3043 54.7568 31.3043C51.3409 31.3043 49.8999 29.7679 49.8999 26.599V21.7978H46.1104V27.3672C46.1104 32.3125 49.0459 34.3771 54.7034 34.3771H54.8101C60.4676 34.3771 63.4031 32.2645 63.4031 27.3672V22.9021C63.4031 20.0693 61.4817 18.2928 58.5996 16.8525L53.2623 14.2118C50.7538 12.9634 49.8999 12.2912 49.8999 10.0347V7.68203C49.8999 4.46518 51.3409 3.07281 54.7034 3.07281C58.0658 3.07281 59.5069 4.46518 59.5069 7.68203V12.0992H63.2963Z" fill="black"/>
<path d="M68.9521 7.10588V27.2712C68.9521 32.0725 72.0478 34.3771 77.7052 34.3771H78.1322C83.7897 34.3771 86.8853 32.0725 86.8853 27.2712V7.10588C86.8853 2.30461 83.7897 0 78.1322 0H77.7052C72.0478 0 68.9521 2.2566 68.9521 7.10588ZM72.795 26.407V7.97011C72.795 4.46518 74.3428 3.12082 77.9187 3.12082C81.4947 3.12082 83.0425 4.46518 83.0425 7.97011V26.407C83.0425 29.9119 81.4947 31.2563 77.9187 31.2563C74.3428 31.2563 72.795 29.9119 72.795 26.407Z" fill="black"/>
<path d="M110.697 20.5974H106.854V26.407C106.854 29.8639 105.413 31.2563 101.891 31.2563C98.3683 31.2563 96.9272 29.8639 96.9272 26.407V7.97011C96.9272 4.51319 98.3683 3.12082 101.891 3.12082C105.413 3.12082 106.854 4.51319 106.854 7.97011V12.9634H110.697V7.10588C110.697 2.40063 107.602 0 101.944 0H101.837C96.18 0 93.0844 2.40063 93.0844 7.10588V27.2712C93.0844 32.2165 96.18 34.3771 101.837 34.3771H101.944C107.602 34.3771 110.697 32.1685 110.697 27.2712V20.5974Z" fill="black"/>
<path d="M120.965 33.993V0.384099H117.122V33.993H120.965Z" fill="black"/>
<path d="M142.054 33.993H146.004L137.998 0.384099H133.408L125.509 33.993H129.245L131.113 25.6868H140.186L142.054 33.993ZM131.753 22.662L135.649 5.18537L139.546 22.662H131.753Z" fill="black"/>
<path d="M162.815 0.384099H145.362V3.50493H152.14V33.993H155.983V3.50493H162.815V0.384099Z" fill="black"/>
<path d="M182.21 33.993V30.8722H170.788V18.4849H180.395V15.4121H170.788V3.50493H182.05V0.384099H166.946V33.993H182.21Z" fill="black"/>
<path d="M195.868 7.10588V27.2712C195.868 32.0725 198.964 34.3771 204.621 34.3771H205.048C210.706 34.3771 213.801 32.0725 213.801 27.2712V7.10588C213.801 2.30461 210.706 0 205.048 0H204.621C198.964 0 195.868 2.2566 195.868 7.10588ZM199.711 26.407V7.97011C199.711 4.46518 201.259 3.12082 204.835 3.12082C208.411 3.12082 209.958 4.46518 209.958 7.97011V26.407C209.958 29.9119 208.411 31.2563 204.835 31.2563C201.259 31.2563 199.711 29.9119 199.711 26.407Z" fill="black"/>
<path d="M220.214 33.993H224.057V18.725H233.45V15.6521H224.057V3.50493H235.105V0.384099H220.214V33.993Z" fill="black"/>
<path d="M302.21 196.007H293.652V229.616H297.298V215.836H302.21C307.577 215.836 310.514 213.532 310.514 208.731V203.113C310.514 198.312 307.577 196.007 302.21 196.007ZM306.868 207.866C306.868 211.371 305.4 212.716 302.007 212.716H297.298V199.128H302.007C305.4 199.128 306.868 200.472 306.868 203.977V207.866Z" fill="black"/>
<path d="M315.257 202.729V222.894C315.257 227.696 318.194 230 323.562 230H323.967C329.334 230 332.271 227.696 332.271 222.894V202.729C332.271 197.928 329.334 195.623 323.967 195.623H323.562C318.194 195.623 315.257 197.88 315.257 202.729ZM318.903 222.03V203.593C318.903 200.088 320.372 198.744 323.764 198.744C327.157 198.744 328.626 200.088 328.626 203.593V222.03C328.626 225.535 327.157 226.879 323.764 226.879C320.372 226.879 318.903 225.535 318.903 222.03Z" fill="black"/>
<path d="M356.433 229.616L350.711 214.924C353.648 214.012 355.218 211.851 355.218 208.346V203.113C355.218 198.312 352.281 196.007 346.913 196.007H338.355V229.616H342.001V215.452H346.913H347.217L352.635 229.616H356.433ZM342.001 199.128H346.711C350.103 199.128 351.572 200.472 351.572 203.977V207.53C351.572 211.035 350.103 212.379 346.711 212.379H342.001V199.128Z" fill="black"/>
<path d="M375.134 196.007H358.576V199.128H365.007V229.616H368.653V199.128H375.134V196.007Z" fill="black"/>
<path d="M379.054 229.616H382.699V214.348H391.612V211.275H382.699V199.128H393.181V196.007H379.054V229.616Z" fill="black"/>
<path d="M397.148 202.729V222.894C397.148 227.696 400.085 230 405.452 230H405.858C411.225 230 414.162 227.696 414.162 222.894V202.729C414.162 197.928 411.225 195.623 405.858 195.623H405.452C400.085 195.623 397.148 197.88 397.148 202.729ZM400.794 222.03V203.593C400.794 200.088 402.262 198.744 405.655 198.744C409.048 198.744 410.516 200.088 410.516 203.593V222.03C410.516 225.535 409.048 226.879 405.655 226.879C402.262 226.879 400.794 225.535 400.794 222.03Z" fill="black"/>
<path d="M433.969 226.447H423.892V196.007H420.246V229.616H433.969V226.447Z" fill="black"/>
<path d="M441.847 229.616V196.007H438.202V229.616H441.847Z" fill="black"/>
<path d="M448.082 202.729V222.894C448.082 227.696 451.019 230 456.387 230H456.792C462.16 230 465.097 227.696 465.097 222.894V202.729C465.097 197.928 462.16 195.623 456.792 195.623H456.387C451.019 195.623 448.082 197.88 448.082 202.729ZM451.728 222.03V203.593C451.728 200.088 453.197 198.744 456.589 198.744C459.982 198.744 461.451 200.088 461.451 203.593V222.03C461.451 225.535 459.982 226.879 456.589 226.879C453.197 226.879 451.728 225.535 451.728 222.03Z" fill="black"/>
<path d="M494.887 207.722V202.537C494.887 197.832 491.646 195.623 486.785 195.623H486.684C481.822 195.623 478.582 197.832 478.582 202.537V206.57C478.582 209.499 479.999 210.891 483.088 212.524L488.051 215.116C490.481 216.413 491.393 217.277 491.393 219.533V222.222C491.393 225.391 490.026 226.927 486.785 226.927C483.544 226.927 482.177 225.391 482.177 222.222V217.421H478.582V222.99C478.582 227.936 481.367 230 486.734 230H486.835C492.203 230 494.988 227.888 494.988 222.99V218.525C494.988 215.692 493.165 213.916 490.431 212.476L485.367 209.835C482.987 208.586 482.177 207.914 482.177 205.658V203.305C482.177 200.088 483.544 198.696 486.734 198.696C489.924 198.696 491.292 200.088 491.292 203.305V207.722H494.887Z" fill="black"/>
<path d="M500.455 196.007V229.616H504.101V214.108H514.077V229.616H517.723V196.007H514.077V210.939H504.101V196.007H500.455Z" fill="black"/>
<path d="M523.792 202.729V222.894C523.792 227.696 526.729 230 532.096 230H532.501C537.869 230 540.806 227.696 540.806 222.894V202.729C540.806 197.928 537.869 195.623 532.501 195.623H532.096C526.729 195.623 523.792 197.88 523.792 202.729ZM527.437 222.03V203.593C527.437 200.088 528.906 198.744 532.299 198.744C535.691 198.744 537.16 200.088 537.16 203.593V222.03C537.16 225.535 535.691 226.879 532.299 226.879C528.906 226.879 527.437 225.535 527.437 222.03Z" fill="black"/>
<path d="M574.849 196.007H571.406L567.152 223.086L561.531 196.007H558.088L552.467 223.086L548.214 196.007H544.568L550.391 229.616H554.037L559.759 202.681L565.481 229.616H569.026L574.849 196.007Z" fill="black"/>
<path d="M585.989 207.386H589.483V203.113C589.483 199.992 590.85 198.6 593.635 198.6C596.42 198.6 597.939 199.992 597.939 203.113V206.954C597.939 209.211 596.167 210.507 592.926 212.956C589.078 215.836 585.888 218.381 585.888 222.654V229.616H601.484V226.639H589.432V222.75C589.432 220.11 591.306 218.381 594.8 215.644C598.446 212.812 601.484 210.747 601.484 207.29V202.537C601.484 197.832 598.851 195.623 593.787 195.623H593.686C588.622 195.623 585.989 197.832 585.989 202.537V207.386Z" fill="black"/>
<path d="M614.877 195.623H614.472C609.459 195.623 606.572 197.928 606.572 202.729V222.894C606.572 227.696 609.459 230 614.472 230H614.877C619.89 230 622.776 227.696 622.776 222.894V202.729C622.776 197.928 619.89 195.623 614.877 195.623ZM619.232 203.593V222.03C619.232 225.535 617.713 226.879 614.674 226.879C611.636 226.879 610.117 225.535 610.117 222.03V203.593C610.117 200.088 611.636 198.744 614.674 198.744C617.713 198.744 619.232 200.088 619.232 203.593Z" fill="black"/>
<path d="M632.881 229.616V196.007H630.906C630.653 197.303 630.096 198.264 629.336 199.128V229.616H632.881Z" fill="black"/>
<path d="M639.707 219.917V223.086C639.707 227.792 641.935 230 647.302 230H647.404C652.771 230 654.999 227.792 654.999 223.086V202.537C654.999 197.832 652.619 195.623 647.252 195.623H647.151C641.783 195.623 639.403 197.832 639.403 202.537V210.075C639.403 214.492 642.391 216.461 646.442 216.461C649.024 216.461 650.645 215.644 651.455 214.444V222.51C651.455 225.919 650.239 227.023 647.353 227.023C644.467 227.023 643.251 225.919 643.251 222.51V219.917H639.707ZM647.201 213.436C644.619 213.436 642.948 212.283 642.948 209.451V203.113C642.948 199.704 644.315 198.6 647.201 198.6C650.088 198.6 651.455 199.704 651.455 203.113V209.451C651.455 212.283 649.581 213.436 647.201 213.436Z" fill="black"/>
<path d="M0 181.408H24.9292V124.676H58.4547V105.323H24.9292V67.9446H65.1168V48.5913H0V181.408Z" fill="black"/>
<path d="M105.12 181.408V48.5913H80.1905V181.408H105.12Z" fill="black"/>
<path d="M150.171 181.408V95.077L183.052 181.408H206.692V48.5913H183.912V130.748L152.32 48.5913H127.391V181.408H150.171Z" fill="black"/>
<path d="M294.75 181.408V162.054H253.058V123.727H287.443V104.374H253.058V67.9446H294.105V48.5913H228.129V181.408H294.75Z" fill="black"/>
<path fill-rule="evenodd" clip-rule="evenodd" d="M354.602 48.5913L386.429 181.408H403.93V48.5913H354.602ZM335.703 48.5913L304.3 181.408H291.111V48.5913H335.703ZM319.271 181.408H370.602L363.116 148.32H326.757L319.271 181.408ZM452.2 48.5913C467.13 51.507 475.151 60.4555 475.151 75.8346V96.6815C475.151 110.643 468.521 119.25 456.116 122.883L480.284 181.408H516.496V59.9604H489.334V48.5913H452.2ZM559.272 48.5913V59.9604H531.896V181.408H591.739C578.7 178.217 571.996 169.885 571.996 155.014V132.829H587.181V151.954C587.181 164.577 592.956 170.697 606.644 170.697C620.332 170.697 626.107 164.577 626.107 151.954V141.244C626.107 132.255 622.257 128.812 611.991 123.648L591.031 113.321C577.985 106.818 571.996 101.272 571.996 89.605V73.5395C571.996 60.6315 578.488 52.4403 589.237 48.5913H559.272ZM623.624 48.5913C634.372 52.4403 640.865 60.6315 640.865 73.5395V94.1951H625.679V76.5996C625.679 63.7855 619.905 58.2391 606.43 58.2391C592.956 58.2391 587.181 63.7855 587.181 76.5996V85.9711C587.181 94.9602 590.603 97.6377 600.656 102.61L622.043 113.129C633.593 118.867 641.292 125.944 641.292 137.228V155.014C641.292 169.781 634.553 178.191 621.444 181.408H655V48.5913H623.624ZM464.244 181.408L441.359 124.987H440.075H419.329V181.408H464.244ZM344.937 66.6543L329.324 136.271H360.55L344.937 66.6543ZM439.22 59.9604H419.329V112.747H439.22C453.55 112.747 459.752 107.392 459.752 93.4301V79.2772C459.752 65.3155 453.55 59.9604 439.22 59.9604Z" fill="#A72129"/>
</svg>
