<svg width="20" height="20" viewBox="0 0 20 20" fill="none" xmlns="http://www.w3.org/2000/svg">
<path d="M18.8966 0H1.10345C0.810796 0 0.530129 0.116256 0.323193 0.323193C0.116256 0.530129 0 0.810796 0 1.10345L0 18.8966C0 19.1892 0.116256 19.4699 0.323193 19.6768C0.530129 19.8837 0.810796 20 1.10345 20H10.6897V12.2655H8.08621V9.23793H10.6897V7.01034C10.6897 4.42759 12.269 3.02069 14.5724 3.02069C15.3486 3.019 16.1244 3.05813 16.8966 3.13793V5.83793H15.3103C14.0552 5.83793 13.8103 6.43103 13.8103 7.3069V9.23448H16.8103L16.4207 12.2621H13.7931V20H18.8966C19.1892 20 19.4699 19.8837 19.6768 19.6768C19.8837 19.4699 20 19.1892 20 18.8966V1.10345C20 0.810796 19.8837 0.530129 19.6768 0.323193C19.4699 0.116256 19.1892 0 18.8966 0V0Z" fill="black"/>
</svg>
