<svg width="20" height="17" viewBox="0 0 20 17" fill="none" xmlns="http://www.w3.org/2000/svg">
<path d="M6.2896 16.251C13.8368 16.251 17.9648 9.99824 17.9648 4.57584C17.9648 4.39824 17.9648 4.22144 17.9528 4.04544C18.7559 3.46457 19.4491 2.74534 20 1.92144C19.2511 2.25328 18.4567 2.4709 17.6432 2.56704C18.4998 2.05423 19.1409 1.24766 19.4472 0.29744C18.6417 0.775405 17.7605 1.11225 16.8416 1.29344C16.2229 0.635588 15.4047 0.199975 14.5135 0.0540106C13.6223 -0.0919535 12.7079 0.0598692 11.9116 0.485985C11.1154 0.9121 10.4819 1.58875 10.109 2.41123C9.73605 3.23371 9.64462 4.15616 9.8488 5.03584C8.2174 4.95405 6.62144 4.53011 5.16451 3.79151C3.70759 3.05292 2.42227 2.0162 1.392 0.74864C0.867274 1.65197 0.70656 2.72133 0.942583 3.73899C1.17861 4.75665 1.79362 5.6461 2.6624 6.22624C2.00939 6.20689 1.37062 6.03073 0.8 5.71264C0.8 5.72944 0.8 5.74704 0.8 5.76464C0.800259 6.71201 1.12821 7.63014 1.72823 8.36328C2.32824 9.09642 3.16338 9.59945 4.092 9.78704C3.4879 9.95179 2.85406 9.97588 2.2392 9.85744C2.50141 10.6728 3.01189 11.3858 3.69926 11.8967C4.38662 12.4076 5.21649 12.691 6.0728 12.707C4.61979 13.849 2.82485 14.4689 0.9768 14.467C0.650323 14.4664 0.324163 14.4466 0 14.4078C1.87651 15.6121 4.05993 16.2508 6.2896 16.2478" fill="black"/>
</svg>
