<?xml version="1.0" encoding="utf-8"?>
<!-- Generator: Adobe Illustrator 17.1.0, SVG Export Plug-In . SVG Version: 6.00 Build 0)  -->
<!DOCTYPE svg PUBLIC "-//W3C//DTD SVG 1.1//EN" "http://www.w3.org/Graphics/SVG/1.1/DTD/svg11.dtd">
<svg version="1.1" id="Layer_1" xmlns="http://www.w3.org/2000/svg" xmlns:xlink="http://www.w3.org/1999/xlink" x="0px" y="0px"
	 viewBox="0 0 56.7 56.7" enable-background="new 0 0 56.7 56.7" xml:space="preserve">
<path d="M43.4,4.8H13c-5.3,0-9.6,4.3-9.6,9.6v10.1v20.3c0,5.3,4.3,9.6,9.6,9.6h30.4c5.3,0,9.6-4.3,9.6-9.6V24.5V14.4
	C53,9.1,48.7,4.8,43.4,4.8z M46.2,10.5l1.1,0v1.1v7.3l-8.4,0l0-8.4L46.2,10.5z M21.1,24.5c1.6-2.2,4.2-3.6,7.1-3.6s5.5,1.4,7.1,3.6
	c1,1.4,1.7,3.2,1.7,5.1c0,4.8-3.9,8.7-8.7,8.7c-4.8,0-8.7-3.9-8.7-8.7C19.5,27.7,20.1,26,21.1,24.5z M48.2,44.8
	c0,2.6-2.1,4.8-4.8,4.8H13c-2.6,0-4.8-2.1-4.8-4.8V24.5h7.4c-0.6,1.6-1,3.3-1,5.1c0,7.5,6.1,13.6,13.6,13.6
	c7.5,0,13.6-6.1,13.6-13.6c0-1.8-0.4-3.5-1-5.1h7.4V44.8z"/>
</svg>
