<svg width="32" height="30" viewBox="0 0 32 30" fill="none" xmlns="http://www.w3.org/2000/svg">
<path d="M27.7355 0H3.76415C1.6852 0 0 1.69156 0 3.77583V18.4091C0 20.4972 1.6852 22.1865 3.76415 22.1865H6.98961V28.5756C6.98961 29.3613 7.62618 30 8.41053 30C8.81154 30 9.17403 29.8342 9.43137 29.5674H9.43326L16.7652 22.1865H27.7358C29.8142 22.1865 31.5 20.4972 31.5 18.4091V3.77583C31.4997 1.69156 29.8139 0 27.7355 0ZM8.62777 12.9335C7.58608 12.9335 6.7408 12.085 6.7408 11.0394C6.7408 9.99377 7.58608 9.14529 8.62777 9.14529C9.66945 9.14529 10.5147 9.99377 10.5147 11.0394C10.5147 12.0847 9.66945 12.9335 8.62777 12.9335ZM15.9761 12.9335C14.9344 12.9335 14.0901 12.085 14.0901 11.0394C14.0901 9.99377 14.9344 9.14529 15.9761 9.14529C17.0178 9.14529 17.8621 9.99377 17.8621 11.0394C17.8621 12.0847 17.0178 12.9335 15.9761 12.9335ZM23.4305 12.9335C22.3888 12.9335 21.5435 12.085 21.5435 11.0394C21.5435 9.99377 22.3888 9.14529 23.4305 9.14529C24.4722 9.14529 25.3175 9.99377 25.3175 11.0394C25.3175 12.0847 24.4722 12.9335 23.4305 12.9335Z" fill="black"/>
</svg>
