<svg width="57" height="30" viewBox="0 0 57 30" fill="none" xmlns="http://www.w3.org/2000/svg">
<path d="M51.6984 27.1369C51.7674 26.9927 51.8098 26.8333 51.8098 26.6631V1.09559C51.8098 0.490315 51.3215 0 50.7173 0H6.28267C5.6791 0 5.19017 0.490315 5.19017 1.09559V26.6631C5.19017 26.8339 5.23197 26.9933 5.30163 27.1369H0V28.9044C0 29.5097 0.488933 30 1.0925 30H55.9062C56.5098 30 57 29.5103 57 28.9044V27.1369H51.6984ZM28.0693 1.02382C28.0693 0.785646 28.2619 0.591299 28.5 0.591299C28.7375 0.591299 28.9307 0.785011 28.9307 1.02318C28.9307 1.26135 28.7381 1.45507 28.5 1.45507C28.2619 1.45507 28.0693 1.26262 28.0693 1.02382ZM7.0566 2.11242H49.9428V25.3395H7.0566V2.11242ZM31.6553 28.5703C31.6553 28.8091 31.4634 29.0029 31.2259 29.0029H25.7741C25.5366 29.0029 25.3435 28.8091 25.3435 28.571V28.5703V28.5697C25.3435 28.3303 25.5366 28.1366 25.7741 28.1366H31.2259C31.464 28.1372 31.6553 28.3303 31.6553 28.5703Z" fill="black"/>
</svg>
